<?xml version="1.0" encoding="UTF-8" standalone="no"?>
<!DOCTYPE svg PUBLIC "-//W3C//DTD SVG 1.1//EN"
 "http://www.w3.org/Graphics/SVG/1.1/DTD/svg11.dtd">
<!-- Generated by graphviz version 2.40.1 (20161225.0304)
 -->
<!-- Title: Tree Pages: 1 -->
<svg width="590pt" height="477pt"
 viewBox="0.00 0.00 590.00 477.00" xmlns="http://www.w3.org/2000/svg" xmlns:xlink="http://www.w3.org/1999/xlink">
<g id="graph0" class="graph" transform="scale(1 1) rotate(0) translate(4 473)">
<title>Tree</title>
<polygon fill="#ffffff" stroke="transparent" points="-4,4 -4,-473 586,-473 586,4 -4,4"/>
<!-- 0 -->
<g id="node1" class="node">
<title>0</title>
<path fill="#b7dbf6" stroke="#000000" d="M325.5,-469C325.5,-469 195.5,-469 195.5,-469 189.5,-469 183.5,-463 183.5,-457 183.5,-457 183.5,-413 183.5,-413 183.5,-407 189.5,-401 195.5,-401 195.5,-401 325.5,-401 325.5,-401 331.5,-401 337.5,-407 337.5,-413 337.5,-413 337.5,-457 337.5,-457 337.5,-463 331.5,-469 325.5,-469"/>
<text text-anchor="middle" x="260.5" y="-453.8" font-family="Helvetica,sans-Serif" font-size="14.00" fill="#000000">AIAN_June15 &lt;= 10.5</text>
<text text-anchor="middle" x="260.5" y="-438.8" font-family="Helvetica,sans-Serif" font-size="14.00" fill="#000000">gini = 0.475</text>
<text text-anchor="middle" x="260.5" y="-423.8" font-family="Helvetica,sans-Serif" font-size="14.00" fill="#000000">samples = 18</text>
<text text-anchor="middle" x="260.5" y="-408.8" font-family="Helvetica,sans-Serif" font-size="14.00" fill="#000000">value = [7, 11]</text>
</g>
<!-- 1 -->
<g id="node2" class="node">
<title>1</title>
<path fill="#40e0d0" stroke="#000000" d="M227,-365C227,-365 146,-365 146,-365 140,-365 134,-359 134,-353 134,-353 134,-309 134,-309 134,-303 140,-297 146,-297 146,-297 227,-297 227,-297 233,-297 239,-303 239,-309 239,-309 239,-353 239,-353 239,-359 233,-365 227,-365"/>
<text text-anchor="middle" x="186.5" y="-349.8" font-family="Helvetica,sans-Serif" font-size="14.00" fill="#000000">State &lt;= 2.5</text>
<text text-anchor="middle" x="186.5" y="-334.8" font-family="Helvetica,sans-Serif" font-size="14.00" fill="#000000">gini = 0.278</text>
<text text-anchor="middle" x="186.5" y="-319.8" font-family="Helvetica,sans-Serif" font-size="14.00" fill="#000000">samples = 12</text>
<text text-anchor="middle" x="186.5" y="-304.8" font-family="Helvetica,sans-Serif" font-size="14.00" fill="#000000">value = [2, 10]</text>
</g>
<!-- 0&#45;&gt;1 -->
<g id="edge1" class="edge">
<title>0&#45;&gt;1</title>
<path fill="none" stroke="#000000" d="M236.2696,-400.9465C230.0088,-392.1475 223.192,-382.5672 216.6687,-373.3993"/>
<polygon fill="#000000" stroke="#000000" points="219.4342,-371.2488 210.7848,-365.13 213.7306,-375.3071 219.4342,-371.2488"/>
<text text-anchor="middle" x="206.6299" y="-386.0823" font-family="Helvetica,sans-Serif" font-size="14.00" fill="#000000">True</text>
</g>
<!-- 8 -->
<g id="node9" class="node">
<title>8</title>
<path fill="#ffa500" stroke="#000000" d="M399.5,-365C399.5,-365 269.5,-365 269.5,-365 263.5,-365 257.5,-359 257.5,-353 257.5,-353 257.5,-309 257.5,-309 257.5,-303 263.5,-297 269.5,-297 269.5,-297 399.5,-297 399.5,-297 405.5,-297 411.5,-303 411.5,-309 411.5,-309 411.5,-353 411.5,-353 411.5,-359 405.5,-365 399.5,-365"/>
<text text-anchor="middle" x="334.5" y="-349.8" font-family="Helvetica,sans-Serif" font-size="14.00" fill="#000000">AIAN_June15 &lt;= 14.5</text>
<text text-anchor="middle" x="334.5" y="-334.8" font-family="Helvetica,sans-Serif" font-size="14.00" fill="#000000">gini = 0.278</text>
<text text-anchor="middle" x="334.5" y="-319.8" font-family="Helvetica,sans-Serif" font-size="14.00" fill="#000000">samples = 6</text>
<text text-anchor="middle" x="334.5" y="-304.8" font-family="Helvetica,sans-Serif" font-size="14.00" fill="#000000">value = [5, 1]</text>
</g>
<!-- 0&#45;&gt;8 -->
<g id="edge8" class="edge">
<title>0&#45;&gt;8</title>
<path fill="none" stroke="#000000" d="M284.7304,-400.9465C290.9912,-392.1475 297.808,-382.5672 304.3313,-373.3993"/>
<polygon fill="#000000" stroke="#000000" points="307.2694,-375.3071 310.2152,-365.13 301.5658,-371.2488 307.2694,-375.3071"/>
<text text-anchor="middle" x="314.3701" y="-386.0823" font-family="Helvetica,sans-Serif" font-size="14.00" fill="#000000">False</text>
</g>
<!-- 2 -->
<g id="node3" class="node">
<title>2</title>
<path fill="#40e0d0" stroke="#000000" d="M85,-253.5C85,-253.5 12,-253.5 12,-253.5 6,-253.5 0,-247.5 0,-241.5 0,-241.5 0,-212.5 0,-212.5 0,-206.5 6,-200.5 12,-200.5 12,-200.5 85,-200.5 85,-200.5 91,-200.5 97,-206.5 97,-212.5 97,-212.5 97,-241.5 97,-241.5 97,-247.5 91,-253.5 85,-253.5"/>
<text text-anchor="middle" x="48.5" y="-238.3" font-family="Helvetica,sans-Serif" font-size="14.00" fill="#000000">gini = 0.0</text>
<text text-anchor="middle" x="48.5" y="-223.3" font-family="Helvetica,sans-Serif" font-size="14.00" fill="#000000">samples = 1</text>
<text text-anchor="middle" x="48.5" y="-208.3" font-family="Helvetica,sans-Serif" font-size="14.00" fill="#000000">value = [1, 0]</text>
</g>
<!-- 1&#45;&gt;2 -->
<g id="edge2" class="edge">
<title>1&#45;&gt;2</title>
<path fill="none" stroke="#000000" d="M141.3136,-296.9465C125.3823,-284.9403 107.5204,-271.4791 91.7527,-259.5962"/>
<polygon fill="#000000" stroke="#000000" points="93.812,-256.7656 83.7194,-253.5422 89.599,-262.3558 93.812,-256.7656"/>
</g>
<!-- 3 -->
<g id="node4" class="node">
<title>3</title>
<path fill="#ffa500" stroke="#000000" d="M249.5,-261C249.5,-261 127.5,-261 127.5,-261 121.5,-261 115.5,-255 115.5,-249 115.5,-249 115.5,-205 115.5,-205 115.5,-199 121.5,-193 127.5,-193 127.5,-193 249.5,-193 249.5,-193 255.5,-193 261.5,-199 261.5,-205 261.5,-205 261.5,-249 261.5,-249 261.5,-255 255.5,-261 249.5,-261"/>
<text text-anchor="middle" x="188.5" y="-245.8" font-family="Helvetica,sans-Serif" font-size="14.00" fill="#000000">AIAN_June15 &lt;= 5.5</text>
<text text-anchor="middle" x="188.5" y="-230.8" font-family="Helvetica,sans-Serif" font-size="14.00" fill="#000000">gini = 0.165</text>
<text text-anchor="middle" x="188.5" y="-215.8" font-family="Helvetica,sans-Serif" font-size="14.00" fill="#000000">samples = 11</text>
<text text-anchor="middle" x="188.5" y="-200.8" font-family="Helvetica,sans-Serif" font-size="14.00" fill="#000000">value = [1, 10]</text>
</g>
<!-- 1&#45;&gt;3 -->
<g id="edge3" class="edge">
<title>1&#45;&gt;3</title>
<path fill="none" stroke="#000000" d="M187.1549,-296.9465C187.312,-288.776 187.4821,-279.9318 187.6467,-271.3697"/>
<polygon fill="#000000" stroke="#000000" points="191.1506,-271.1955 187.8437,-261.13 184.1519,-271.0608 191.1506,-271.1955"/>
</g>
<!-- 4 -->
<g id="node5" class="node">
<title>4</title>
<path fill="#40e0d0" stroke="#000000" d="M161,-149.5C161,-149.5 88,-149.5 88,-149.5 82,-149.5 76,-143.5 76,-137.5 76,-137.5 76,-108.5 76,-108.5 76,-102.5 82,-96.5 88,-96.5 88,-96.5 161,-96.5 161,-96.5 167,-96.5 173,-102.5 173,-108.5 173,-108.5 173,-137.5 173,-137.5 173,-143.5 167,-149.5 161,-149.5"/>
<text text-anchor="middle" x="124.5" y="-134.3" font-family="Helvetica,sans-Serif" font-size="14.00" fill="#000000">gini = 0.0</text>
<text text-anchor="middle" x="124.5" y="-119.3" font-family="Helvetica,sans-Serif" font-size="14.00" fill="#000000">samples = 7</text>
<text text-anchor="middle" x="124.5" y="-104.3" font-family="Helvetica,sans-Serif" font-size="14.00" fill="#000000">value = [0, 7]</text>
</g>
<!-- 3&#45;&gt;4 -->
<g id="edge4" class="edge">
<title>3&#45;&gt;4</title>
<path fill="none" stroke="#000000" d="M167.544,-192.9465C160.6978,-181.8215 153.0829,-169.4473 146.1843,-158.237"/>
<polygon fill="#000000" stroke="#000000" points="149.0555,-156.2244 140.8336,-149.5422 143.0939,-159.8931 149.0555,-156.2244"/>
</g>
<!-- 5 -->
<g id="node6" class="node">
<title>5</title>
<path fill="#ffa500" stroke="#000000" d="M325.5,-157C325.5,-157 203.5,-157 203.5,-157 197.5,-157 191.5,-151 191.5,-145 191.5,-145 191.5,-101 191.5,-101 191.5,-95 197.5,-89 203.5,-89 203.5,-89 325.5,-89 325.5,-89 331.5,-89 337.5,-95 337.5,-101 337.5,-101 337.5,-145 337.5,-145 337.5,-151 331.5,-157 325.5,-157"/>
<text text-anchor="middle" x="264.5" y="-141.8" font-family="Helvetica,sans-Serif" font-size="14.00" fill="#000000">AIAN_June15 &lt;= 6.5</text>
<text text-anchor="middle" x="264.5" y="-126.8" font-family="Helvetica,sans-Serif" font-size="14.00" fill="#000000">gini = 0.375</text>
<text text-anchor="middle" x="264.5" y="-111.8" font-family="Helvetica,sans-Serif" font-size="14.00" fill="#000000">samples = 4</text>
<text text-anchor="middle" x="264.5" y="-96.8" font-family="Helvetica,sans-Serif" font-size="14.00" fill="#000000">value = [1, 3]</text>
</g>
<!-- 3&#45;&gt;5 -->
<g id="edge5" class="edge">
<title>3&#45;&gt;5</title>
<path fill="none" stroke="#000000" d="M213.3852,-192.9465C219.8153,-184.1475 226.8163,-174.5672 233.5159,-165.3993"/>
<polygon fill="#000000" stroke="#000000" points="236.4845,-167.269 239.5588,-157.13 230.8328,-163.1389 236.4845,-167.269"/>
</g>
<!-- 6 -->
<g id="node7" class="node">
<title>6</title>
<path fill="#40e0d0" stroke="#000000" d="M244,-53C244,-53 171,-53 171,-53 165,-53 159,-47 159,-41 159,-41 159,-12 159,-12 159,-6 165,0 171,0 171,0 244,0 244,0 250,0 256,-6 256,-12 256,-12 256,-41 256,-41 256,-47 250,-53 244,-53"/>
<text text-anchor="middle" x="207.5" y="-37.8" font-family="Helvetica,sans-Serif" font-size="14.00" fill="#000000">gini = 0.0</text>
<text text-anchor="middle" x="207.5" y="-22.8" font-family="Helvetica,sans-Serif" font-size="14.00" fill="#000000">samples = 1</text>
<text text-anchor="middle" x="207.5" y="-7.8" font-family="Helvetica,sans-Serif" font-size="14.00" fill="#000000">value = [1, 0]</text>
</g>
<!-- 5&#45;&gt;6 -->
<g id="edge6" class="edge">
<title>5&#45;&gt;6</title>
<path fill="none" stroke="#000000" d="M244.4039,-88.9777C239.2656,-80.2786 233.727,-70.9018 228.5425,-62.1247"/>
<polygon fill="#000000" stroke="#000000" points="231.399,-60.0786 223.2996,-53.2485 225.3719,-63.6387 231.399,-60.0786"/>
</g>
<!-- 7 -->
<g id="node8" class="node">
<title>7</title>
<path fill="#ffa500" stroke="#000000" d="M359,-53C359,-53 286,-53 286,-53 280,-53 274,-47 274,-41 274,-41 274,-12 274,-12 274,-6 280,0 286,0 286,0 359,0 359,0 365,0 371,-6 371,-12 371,-12 371,-41 371,-41 371,-47 365,-53 359,-53"/>
<text text-anchor="middle" x="322.5" y="-37.8" font-family="Helvetica,sans-Serif" font-size="14.00" fill="#000000">gini = 0.0</text>
<text text-anchor="middle" x="322.5" y="-22.8" font-family="Helvetica,sans-Serif" font-size="14.00" fill="#000000">samples = 3</text>
<text text-anchor="middle" x="322.5" y="-7.8" font-family="Helvetica,sans-Serif" font-size="14.00" fill="#000000">value = [0, 3]</text>
</g>
<!-- 5&#45;&gt;7 -->
<g id="edge7" class="edge">
<title>5&#45;&gt;7</title>
<path fill="none" stroke="#000000" d="M284.9486,-88.9777C290.2322,-80.187 295.9316,-70.7044 301.2548,-61.8477"/>
<polygon fill="#000000" stroke="#000000" points="304.2715,-63.6225 306.4232,-53.2485 298.2718,-60.0165 304.2715,-63.6225"/>
</g>
<!-- 9 -->
<g id="node10" class="node">
<title>9</title>
<path fill="#40e0d0" stroke="#000000" d="M369,-253.5C369,-253.5 296,-253.5 296,-253.5 290,-253.5 284,-247.5 284,-241.5 284,-241.5 284,-212.5 284,-212.5 284,-206.5 290,-200.5 296,-200.5 296,-200.5 369,-200.5 369,-200.5 375,-200.5 381,-206.5 381,-212.5 381,-212.5 381,-241.5 381,-241.5 381,-247.5 375,-253.5 369,-253.5"/>
<text text-anchor="middle" x="332.5" y="-238.3" font-family="Helvetica,sans-Serif" font-size="14.00" fill="#000000">gini = 0.0</text>
<text text-anchor="middle" x="332.5" y="-223.3" font-family="Helvetica,sans-Serif" font-size="14.00" fill="#000000">samples = 4</text>
<text text-anchor="middle" x="332.5" y="-208.3" font-family="Helvetica,sans-Serif" font-size="14.00" fill="#000000">value = [4, 0]</text>
</g>
<!-- 8&#45;&gt;9 -->
<g id="edge9" class="edge">
<title>8&#45;&gt;9</title>
<path fill="none" stroke="#000000" d="M333.8451,-296.9465C333.6397,-286.2621 333.412,-274.4254 333.2034,-263.5742"/>
<polygon fill="#000000" stroke="#000000" points="336.7021,-263.473 333.0104,-253.5422 329.7034,-263.6076 336.7021,-263.473"/>
</g>
<!-- 10 -->
<g id="node11" class="node">
<title>10</title>
<path fill="#ffa500" stroke="#000000" d="M541.5,-261C541.5,-261 411.5,-261 411.5,-261 405.5,-261 399.5,-255 399.5,-249 399.5,-249 399.5,-205 399.5,-205 399.5,-199 405.5,-193 411.5,-193 411.5,-193 541.5,-193 541.5,-193 547.5,-193 553.5,-199 553.5,-205 553.5,-205 553.5,-249 553.5,-249 553.5,-255 547.5,-261 541.5,-261"/>
<text text-anchor="middle" x="476.5" y="-245.8" font-family="Helvetica,sans-Serif" font-size="14.00" fill="#000000">AIAN_June15 &lt;= 15.5</text>
<text text-anchor="middle" x="476.5" y="-230.8" font-family="Helvetica,sans-Serif" font-size="14.00" fill="#000000">gini = 0.5</text>
<text text-anchor="middle" x="476.5" y="-215.8" font-family="Helvetica,sans-Serif" font-size="14.00" fill="#000000">samples = 2</text>
<text text-anchor="middle" x="476.5" y="-200.8" font-family="Helvetica,sans-Serif" font-size="14.00" fill="#000000">value = [1, 1]</text>
</g>
<!-- 8&#45;&gt;10 -->
<g id="edge10" class="edge">
<title>8&#45;&gt;10</title>
<path fill="none" stroke="#000000" d="M380.9961,-296.9465C393.9908,-287.4293 408.2337,-276.9978 421.6621,-267.163"/>
<polygon fill="#000000" stroke="#000000" points="423.8998,-269.8624 429.8994,-261.13 419.7637,-264.2151 423.8998,-269.8624"/>
</g>
<!-- 11 -->
<g id="node12" class="node">
<title>11</title>
<path fill="#40e0d0" stroke="#000000" d="M455,-149.5C455,-149.5 382,-149.5 382,-149.5 376,-149.5 370,-143.5 370,-137.5 370,-137.5 370,-108.5 370,-108.5 370,-102.5 376,-96.5 382,-96.5 382,-96.5 455,-96.5 455,-96.5 461,-96.5 467,-102.5 467,-108.5 467,-108.5 467,-137.5 467,-137.5 467,-143.5 461,-149.5 455,-149.5"/>
<text text-anchor="middle" x="418.5" y="-134.3" font-family="Helvetica,sans-Serif" font-size="14.00" fill="#000000">gini = 0.0</text>
<text text-anchor="middle" x="418.5" y="-119.3" font-family="Helvetica,sans-Serif" font-size="14.00" fill="#000000">samples = 1</text>
<text text-anchor="middle" x="418.5" y="-104.3" font-family="Helvetica,sans-Serif" font-size="14.00" fill="#000000">value = [0, 1]</text>
</g>
<!-- 10&#45;&gt;11 -->
<g id="edge11" class="edge">
<title>10&#45;&gt;11</title>
<path fill="none" stroke="#000000" d="M457.5086,-192.9465C451.3657,-181.9316 444.5399,-169.6922 438.3373,-158.5703"/>
<polygon fill="#000000" stroke="#000000" points="441.2299,-156.5711 433.3024,-149.5422 435.1163,-159.9806 441.2299,-156.5711"/>
</g>
<!-- 12 -->
<g id="node13" class="node">
<title>12</title>
<path fill="#ffa500" stroke="#000000" d="M570,-149.5C570,-149.5 497,-149.5 497,-149.5 491,-149.5 485,-143.5 485,-137.5 485,-137.5 485,-108.5 485,-108.5 485,-102.5 491,-96.5 497,-96.5 497,-96.5 570,-96.5 570,-96.5 576,-96.5 582,-102.5 582,-108.5 582,-108.5 582,-137.5 582,-137.5 582,-143.5 576,-149.5 570,-149.5"/>
<text text-anchor="middle" x="533.5" y="-134.3" font-family="Helvetica,sans-Serif" font-size="14.00" fill="#000000">gini = 0.0</text>
<text text-anchor="middle" x="533.5" y="-119.3" font-family="Helvetica,sans-Serif" font-size="14.00" fill="#000000">samples = 1</text>
<text text-anchor="middle" x="533.5" y="-104.3" font-family="Helvetica,sans-Serif" font-size="14.00" fill="#000000">value = [1, 0]</text>
</g>
<!-- 10&#45;&gt;12 -->
<g id="edge12" class="edge">
<title>10&#45;&gt;12</title>
<path fill="none" stroke="#000000" d="M495.1639,-192.9465C501.2009,-181.9316 507.9091,-169.6922 514.0047,-158.5703"/>
<polygon fill="#000000" stroke="#000000" points="517.2158,-159.9936 518.9529,-149.5422 511.0773,-156.6292 517.2158,-159.9936"/>
</g>
</g>
</svg>
